<?xml version="1.0" standalone="no"?>
<!DOCTYPE svg PUBLIC "-//W3C//DTD SVG 20010904//EN"
 "http://www.w3.org/TR/2001/REC-SVG-20010904/DTD/svg10.dtd">
<svg version="1.0" xmlns="http://www.w3.org/2000/svg"
 width="827.000000pt" height="617.000000pt" viewBox="0 0 827.000000 617.000000"
 preserveAspectRatio="xMidYMid meet">

<g transform="translate(0.000000,617.000000) scale(0.100000,-0.100000)"
fill="#000000" stroke="none">
<path d="M780 5302 c0 -7 676 -682 1401 -1400 l397 -392 184 0 183 0 84 84
c46 46 82 88 80 94 -2 5 -359 367 -793 805 l-788 795 -112 6 c-189 9 -636 15
-636 8z"/>
<path d="M2500 4844 c245 -245 649 -646 898 -890 l452 -444 180 0 180 0 86 82
c46 45 83 85 82 89 -5 13 -222 234 -922 937 l-669 672 -366 0 -366 0 445 -446z"/>
<path d="M4791 4804 c-265 -268 -480 -491 -479 -495 2 -4 57 -58 122 -118
l120 -111 114 0 113 0 142 137 c161 155 1077 1066 1077 1070 0 2 -164 3 -364
3 l-364 0 -481 -486z"/>
<path d="M5286 4035 l-979 -987 74 -68 74 -69 212 -1 212 0 488 479 c269 264
581 573 696 688 l207 208 -2 368 -3 368 -979 -986z"/>
<path d="M2595 2613 l-790 -796 -3 -360 -2 -360 537 531 c296 292 738 731 983
976 l445 446 -180 180 c-99 99 -184 180 -190 179 -5 0 -365 -358 -800 -796z"/>
<path d="M3845 2599 l-180 -181 802 -799 803 -799 357 0 358 0 -360 363 c-868
874 -1590 1597 -1595 1597 -3 0 -87 -81 -185 -181z"/>
<path d="M5117 2602 c-97 -97 -177 -181 -177 -186 0 -7 974 -976 1471 -1464
l135 -132 352 2 352 3 -971 978 c-534 537 -974 977 -977 977 -4 0 -87 -80
-185 -178z"/>
<path d="M2751 1503 c-347 -351 -638 -648 -647 -660 l-15 -23 350 0 349 0 419
411 c230 226 449 442 488 480 l69 68 -179 181 c-99 99 -185 180 -191 180 -7 0
-296 -287 -643 -637z"/>
</g>
</svg>
